<?xml version="1.0" encoding="utf-8"?>
<svg viewBox="0 0 500 500" xmlns="http://www.w3.org/2000/svg">
  <g transform="matrix(1, 0, 0, 1, 122.706871, 72.643677)"/>
  <g transform="matrix(1, 0, 0, 1, 122.706871, 72.643677)"/>
  <g transform="matrix(1, 0, 0, 1, 122.706871, 72.643677)"/>
  <g transform="matrix(1, 0, 0, 1, 122.706871, 72.643677)"/>
  <g transform="matrix(1, 0, 0, 1, 122.706871, 72.643677)"/>
  <g transform="matrix(1, 0, 0, 1, 122.706871, 72.643677)"/>
  <g transform="matrix(1, 0, 0, 1, 122.706871, 72.643677)"/>
  <g transform="matrix(1, 0, 0, 1, 122.706871, 72.643677)"/>
  <g transform="matrix(1, 0, 0, 1, 122.706871, 72.643677)"/>
  <g transform="matrix(1, 0, 0, 1, 122.706871, 72.643677)"/>
  <g transform="matrix(1, 0, 0, 1, 122.706871, 72.643677)"/>
  <g transform="matrix(1, 0, 0, 1, 122.706871, 72.643677)"/>
  <g transform="matrix(1, 0, 0, 1, 122.706871, 72.643677)"/>
  <g transform="matrix(1, 0, 0, 1, 122.706871, 72.643677)"/>
  <g transform="matrix(1, 0, 0, 1, 122.706871, 72.643677)"/>
  <g transform="matrix(1.450487, 0, 0, 1.487285, -149.778641, -147.83168)" style="">
    <g transform="matrix(1, 0, 0, 1, -26.306803, -26.306803)">
      <g transform="matrix(1, 0, 0, 1, -38.833847, 45.097378)">
        <g>
          <path style="fill:#010002;" d="M180.094,387.584L282.103,115.08h32.227L212.084,387.584H180.094z"/>
          <path style="fill:#010002;" d="M348.843,358.226v-54.272l107.164-52.999l-107.164-52.59v-53.927l153.821,83.522v46.183 L348.843,358.226z"/>
        </g>
        <g/>
        <g/>
        <g/>
        <g/>
        <g/>
        <g/>
        <g/>
        <g/>
        <g/>
        <g/>
        <g/>
        <g/>
        <g/>
        <g/>
        <g/>
      </g>
      <g transform="matrix(1, 0, 0, 1, -38.833847, 45.097378)"/>
      <g transform="matrix(1, 0, 0, 1, -38.833847, 45.097378)"/>
      <g transform="matrix(1, 0, 0, 1, -38.833847, 45.097378)"/>
      <g transform="matrix(1, 0, 0, 1, -38.833847, 45.097378)"/>
      <g transform="matrix(1, 0, 0, 1, -38.833847, 45.097378)"/>
      <g transform="matrix(1, 0, 0, 1, -38.833847, 45.097378)"/>
      <g transform="matrix(1, 0, 0, 1, -38.833847, 45.097378)"/>
      <g transform="matrix(1, 0, 0, 1, -38.833847, 45.097378)"/>
      <g transform="matrix(1, 0, 0, 1, -38.833847, 45.097378)"/>
      <g transform="matrix(1, 0, 0, 1, -38.833847, 45.097378)"/>
      <g transform="matrix(1, 0, 0, 1, -38.833847, 45.097378)"/>
      <g transform="matrix(1, 0, 0, 1, -38.833847, 45.097378)"/>
      <g transform="matrix(1, 0, 0, 1, -38.833847, 45.097378)"/>
      <g transform="matrix(1, 0, 0, 1, -38.833847, 45.097378)"/>
      <g transform="matrix(1, 0, 0, 1, -38.833847, 45.097378)"/>
    </g>
    <g/>
    <g/>
    <g/>
    <g/>
    <g/>
    <g/>
    <g/>
    <g/>
    <g/>
    <g/>
    <g/>
    <g/>
    <g/>
    <g/>
    <g/>
  </g>
</svg>